<!-- Generated device preview for garethpaul/android-fridge-tablet -->
<svg xmlns="http://www.w3.org/2000/svg" width="1200" height="675" viewBox="0 0 1200 675" role="img" aria-labelledby="dk43k7n-title dk43k7n-desc">
  <title id="dk43k7n-title">Android Fridge Tablet device preview</title>
  <desc id="dk43k7n-desc">Android tablet preview for garethpaul/android-fridge-tablet. Generated screen preview.</desc>
  <defs>
    <linearGradient id="dk43k7n-bg" x1="0" y1="0" x2="1" y2="1"><stop offset="0%" stop-color="#dcfce7"/><stop offset="55%" stop-color="#f8fafc"/><stop offset="100%" stop-color="#cffafe"/></linearGradient>
    <linearGradient id="dk43k7n-device" x1="0" y1="0" x2="1" y2="1"><stop offset="0%" stop-color="#020617"/><stop offset="62%" stop-color="#0f2f2c"/><stop offset="100%" stop-color="#111827"/></linearGradient>
    <linearGradient id="dk43k7n-screen" x1="0" y1="0" x2="1" y2="1"><stop offset="0%" stop-color="#f0fdf4"/><stop offset="100%" stop-color="#ecfeff"/></linearGradient>
    <linearGradient id="dk43k7n-accent" x1="0" y1="0" x2="1" y2="1"><stop offset="0%" stop-color="#16a34a"/><stop offset="55%" stop-color="#0891b2"/><stop offset="100%" stop-color="#f59e0b"/></linearGradient>
    <filter id="dk43k7n-shadow" x="-20%" y="-20%" width="140%" height="150%"><feDropShadow dx="0" dy="24" stdDeviation="22" flood-color="#0f172a" flood-opacity="0.20"/></filter>
    <filter id="dk43k7n-softShadow" x="-20%" y="-20%" width="140%" height="150%"><feDropShadow dx="0" dy="12" stdDeviation="14" flood-color="#0f172a" flood-opacity="0.13"/></filter>
    <clipPath id="dk43k7n-tablet-screen"><rect x="118" y="160" width="484" height="296" rx="28"/></clipPath>
    <style>.ui { font-family: ui-sans-serif, system-ui, -apple-system, BlinkMacSystemFont, "Segoe UI", sans-serif; letter-spacing: 0; }</style>
  </defs>
  <rect width="1200" height="675" fill="url(#dk43k7n-bg)"/>
  <path d="M0 560 C170 502 282 636 438 560 C612 476 732 420 908 474 C1052 518 1110 390 1200 344 L1200 675 L0 675Z" fill="#16a34a" opacity="0.08"/>
  <circle cx="1040" cy="118" r="180" fill="#0891b2" opacity="0.12"/>
  <circle cx="128" cy="586" r="168" fill="#f59e0b" opacity="0.12"/>
  <g class="ui">
    <g><rect x="76" y="128" width="568" height="360" rx="44" fill="url(#dk43k7n-device)" filter="url(#dk43k7n-shadow)"/><circle cx="98" cy="308" r="6" fill="#475569"/><rect x="118" y="160" width="484" height="296" rx="28" fill="url(#dk43k7n-screen)"/><g clip-path="url(#dk43k7n-tablet-screen)"><rect x="118" y="160" width="484" height="296" fill="url(#dk43k7n-screen)"/><rect x="118" y="160" width="484" height="54" fill="#16a34a" opacity="0.95"/><circle cx="152" cy="187" r="10" fill="#ffffff" opacity="0.92"/><text x="176" y="193" fill="#ffffff" font-size="18" font-weight="850">Android Fridge Tablet</text><rect x="146" y="242" width="428" height="59" rx="22" fill="#ffffff" opacity="0.93"/><rect x="170" y="270" width="184" height="14" rx="7" fill="#16a34a" opacity="0.82"/><rect x="170" y="300" width="266" height="12" rx="6" fill="#cbd5e1"/><rect x="500" y="270" width="46" height="46" rx="15" fill="#0891b2" opacity="0.72"/><rect x="146" y="316" width="206" height="53" rx="20" fill="#ffffff" opacity="0.84"/><rect x="368" y="316" width="206" height="53" rx="20" fill="#ffffff" opacity="0.84"/><path d="M170 368 C 254 326, 331 400, 418 358 S 525 376, 558 334" fill="none" stroke="#f59e0b" stroke-width="8" stroke-linecap="round" opacity="0.78"/><rect x="146" y="408" width="428" height="10" rx="5" fill="#cbd5e1" opacity="0.76"/></g></g>
    <g transform="translate(700 116)"><rect x="0" y="0" width="390" height="80" rx="24" fill="#ffffff" opacity="0.92" filter="url(#dk43k7n-softShadow)"/><circle cx="42" cy="40" r="18" fill="url(#dk43k7n-accent)"/><text x="76" y="34" fill="#64748b" font-size="14" font-weight="800" text-transform="uppercase">Android tablet preview</text><text x="76" y="58" fill="#0f172a" font-size="18" font-weight="850">Generated app screen</text></g>
    <g transform="translate(700 236)"><text x="0" y="0" fill="#0f172a" font-size="44" font-weight="850">Android Fridge</text>
<text x="0" y="52" fill="#0f172a" font-size="44" font-weight="850">Tablet</text><text x="2" y="220" fill="#475569" font-size="20" font-weight="560">An Android application or sample. The</text>
<text x="2" y="250" fill="#475569" font-size="20" font-weight="560">App for my fridge.</text></g>
    <g transform="translate(700 496)"><rect x="0" y="0" width="390" height="82" rx="24" fill="#0f172a" opacity="0.95" filter="url(#dk43k7n-softShadow)"/><text x="28" y="34" fill="#cbd5e1" font-size="15" font-weight="750">garethpaul/android-fridge-tablet</text><text x="28" y="60" fill="#0891b2" font-size="15" font-weight="800">docs/device-preview.svg</text><circle cx="346" cy="41" r="16" fill="#16a34a"/><circle cx="366" cy="41" r="16" fill="#0891b2" opacity="0.86"/></g>
  </g>
</svg>
